HIERARCHY
ROOT Hips
{
 OFFSET 0.000000 0.000000 0.000000
 CHANNELS 6 Xposition Yposition Zposition Yrotation Xrotation Zrotation
 JOINT Chest
 {
  OFFSET 0.000000 9.585900 0.002600
  CHANNELS 3 Yrotation Xrotation Zrotation
  JOINT Chest2
  {
   OFFSET 0.000000 9.601200 -0.005300
   CHANNELS 3 Yrotation Xrotation Zrotation
   JOINT Chest3
   {
    OFFSET 0.000000 9.561800 0.000000
    CHANNELS 3 Yrotation Xrotation Zrotation
    JOINT Chest4
    {
     OFFSET 0.000000 9.552100 0.000000
     CHANNELS 3 Yrotation Xrotation Zrotation
     JOINT Neck
     {
      OFFSET 0.000000 14.453000 0.000000
      CHANNELS 3 Yrotation Xrotation Zrotation
      JOINT Head
      {
       OFFSET 0.000000 8.936500 -0.011300
       CHANNELS 3 Yrotation Xrotation Zrotation
       End Site
       {
        OFFSET 0.000000 17.073600 -0.006000
       }
      }
     }
     JOINT RightCollar
     {
      OFFSET -2.921100 9.558500 0.000000
      CHANNELS 3 Yrotation Xrotation Zrotation
      JOINT RightShoulder
      {
       OFFSET -13.519700 0.000000 0.000000
       CHANNELS 3 Yrotation Xrotation Zrotation
       JOINT RightElbow
       {
        OFFSET 0.000000 -29.696600 0.000000
        CHANNELS 3 Yrotation Xrotation Zrotation
        JOINT RightWrist
        {
         OFFSET 0.000000 -24.004700 0.000000
         CHANNELS 3 Yrotation Xrotation Zrotation
         End Site
         {
          OFFSET 0.000000 -17.728500 0.000000
         }
        }
       }
      }
     }
     JOINT LeftCollar
     {
      OFFSET 2.921100 9.558500 0.000000
      CHANNELS 3 Yrotation Xrotation Zrotation
      JOINT LeftShoulder
      {
       OFFSET 13.519700 0.000000 0.000000
       CHANNELS 3 Yrotation Xrotation Zrotation
       JOINT LeftElbow
       {
        OFFSET 0.000000 -29.696600 0.000000
        CHANNELS 3 Yrotation Xrotation Zrotation
        JOINT LeftWrist
        {
         OFFSET 0.000000 -24.004700 0.000000
         CHANNELS 3 Yrotation Xrotation Zrotation
         End Site
         {
          OFFSET 0.000000 -17.728500 0.000000
         }
        }
       }
      }
     }
    }
   }
  }
 }
 JOINT RightHip
 {
  OFFSET -7.771700 -0.012900 -0.001300
  CHANNELS 3 Yrotation Xrotation Zrotation
  JOINT RightKnee
  {
   OFFSET 0.000000 -40.869800 0.001200
   CHANNELS 3 Yrotation Xrotation Zrotation
   JOINT RightAnkle
   {
    OFFSET 0.000000 -39.717900 0.002100
    CHANNELS 3 Yrotation Xrotation Zrotation
    JOINT RightToe
    {
     OFFSET 0.000000 -4.965400 11.033500
     CHANNELS 3 Yrotation Xrotation Zrotation
     End Site
     {
      OFFSET 0.000000 -1.423100 5.872300
     }
    }
   }
  }
 }
 JOINT LeftHip
 {
  OFFSET 7.771700 -0.012900 -0.001300
  CHANNELS 3 Yrotation Xrotation Zrotation
  JOINT LeftKnee
  {
   OFFSET 0.000000 -40.869800 0.001200
   CHANNELS 3 Yrotation Xrotation Zrotation
   JOINT LeftAnkle
   {
    OFFSET 0.000000 -39.717900 0.002100
    CHANNELS 3 Yrotation Xrotation Zrotation
    JOINT LeftToe
    {
     OFFSET 0.000000 -4.965400 11.033500
     CHANNELS 3 Yrotation Xrotation Zrotation
     End Site
     {
      OFFSET 0.000000 -1.423100 5.872300
     }
    }
   }
  }
 }
}
MOTION
Frames: 12
Frame Time: 0.008333
-18.626045 57.730186 73.726640 -177.753107 -42.543137 -2.312232 0.446722 29.377794 4.962618 -0.068213 5.694906 0.634885 -0.085969 8.842661 0.996644 0.150310 23.697845 2.721324 -0.786598 10.705947 -3.124676 -0.312320 -16.007321 -5.733094 3.930966 1.580511 -2.749435 19.587577 -27.701976 -20.585106 6.821088 -72.306172 17.478498 20.860645 17.674725 -24.312506 -12.189599 -1.776980 -4.628629 -6.251767 -29.076536 3.537581 -70.374375 -66.424583 42.686484 -16.454624 -0.477540 19.423395 5.627149 -28.454291 -5.767165 -5.368974 63.800683 -6.508974 5.046502 12.241658 8.690200 -0.584215 0.657827 -0.269482 -10.936621 -34.476339 -3.626611 25.831581 55.648582 23.377549 -9.539213 38.764858 0.281311 0.111189 -15.255822 -5.199134
-18.621949 57.729184 73.728757 -177.790311 -42.578962 -2.290855 0.442618 29.319902 4.962136 -0.068376 5.676843 0.633658 -0.079310 8.869801 0.990354 0.150030 23.680967 2.721607 -0.855598 10.736040 -3.167247 -0.442534 -15.978439 -5.783992 3.917822 1.638611 -2.739087 19.595323 -27.716075 -20.587171 6.831008 -72.273725 17.496502 20.837590 17.665839 -24.298266 -12.188187 -1.714098 -4.638282 -6.241644 -29.069733 3.506622 -70.349858 -66.391207 42.680144 -16.449452 -0.486175 19.410832 5.671665 -28.425473 -5.763118 -5.375196 63.804202 -6.504554 5.039694 12.255869 8.692204 -0.584685 0.647316 -0.267872 -10.937097 -34.449589 -3.615654 25.858258 55.653620 23.386223 -9.520982 38.787917 0.299605 0.085526 -15.274736 -5.207927
-18.616616 57.726582 73.732950 -177.813478 -42.602518 -2.283757 0.447624 29.301456 4.969562 -0.067891 5.669069 0.633263 -0.078635 8.858503 0.989838 0.150410 23.648937 2.723424 -0.993079 10.717719 -3.239066 -0.529536 -15.910599 -5.816735 3.917411 1.691269 -2.730624 19.590551 -27.730372 -20.590677 6.817260 -72.241897 17.542188 20.812433 17.656823 -24.298343 -12.188379 -1.658434 -4.645882 -6.232568 -29.092335 3.472615 -70.325880 -66.323888 42.676409 -16.417238 -0.505763 19.390641 5.694930 -28.409032 -5.751944 -5.380211 63.806238 -6.503292 5.038575 12.264430 8.693996 -0.583735 0.643271 -0.266464 -10.955587 -34.435359 -3.595527 25.859770 55.661066 23.385406 -9.534199 38.811532 0.272384 0.075539 -15.286846 -5.206681
-18.610307 57.722297 73.739383 -177.818308 -42.613220 -2.292334 0.440019 29.272803 4.982866 -0.067572 5.662751 0.632832 -0.078135 8.849434 0.989250 0.152681 23.654265 2.720222 -1.101832 10.697261 -3.289803 -0.663653 -15.879797 -5.863443 3.920338 1.649327 -2.701355 19.589062 -27.690519 -20.597023 6.796652 -72.203802 17.584491 20.794961 17.646131 -24.294762 -12.189126 -1.627290 -4.652941 -6.236339 -29.122215 3.461804 -70.265516 -66.283795 42.626655 -16.412470 -0.521663 19.389933 5.703875 -28.404518 -5.737269 -5.387823 63.806548 -6.504560 5.037965 12.270549 8.695691 -0.582235 0.641985 -0.265500 -10.993204 -34.433777 -3.568970 25.833430 55.665200 23.373389 -9.577610 38.849410 0.197081 0.112535 -15.311511 -5.203751
-18.604893 57.720052 73.744000 -177.843472 -42.646034 -2.280456 0.453482 29.285405 4.989164 -0.070568 5.648667 0.635133 -0.080840 8.830896 0.991867 0.155956 23.691192 2.709511 -1.198391 10.660753 -3.327467 -0.828941 -15.868531 -5.918398 3.920599 1.641097 -2.694612 19.589718 -27.695419 -20.599022 6.754906 -72.209407 17.630131 20.795134 17.668551 -24.277316 -12.189149 -1.629298 -4.648015 -6.255923 -29.181707 3.468964 -70.122726 -66.241551 42.494058 -16.405718 -0.535208 19.392896 5.731743 -28.376058 -5.727113 -5.389861 63.805873 -6.502911 5.034012 12.271133 8.698319 -0.582879 0.644675 -0.263529 -11.008066 -34.412970 -3.551682 25.861689 55.671833 23.380678 -9.568525 38.874611 0.220817 0.093755 -15.330146 -5.223856
-18.599293 57.717282 73.749581 -177.873462 -42.678243 -2.264976 0.469908 29.296880 4.995426 -0.067438 5.657754 0.632422 -0.088174 8.790535 1.001085 0.154922 23.683734 2.708745 -1.305211 10.668233 -3.380767 -1.008068 -15.861183 -5.977087 3.922214 1.638304 -2.686782 19.610652 -27.705353 -20.611665 6.700666 -72.149587 17.688568 20.773551 17.647305 -24.278867 -12.179564 -1.649694 -4.632302 -6.233262 -29.121639 3.413517 -70.137968 -66.212482 42.514340 -16.399091 -0.553419 19.395044 5.759848 -28.348179 -5.714723 -5.350880 63.801774 -6.468974 5.013888 12.279140 8.710485 -0.585141 0.643648 -0.268239 -11.017674 -34.391957 -3.538696 25.857049 55.671047 23.372250 -9.585857 38.938172 0.215994 0.105864 -15.375062 -5.251743
-18.594563 57.711725 73.758457 -177.864012 -42.689700 -2.269730 0.433643 29.234065 4.999880 -0.063039 5.687438 0.622901 -0.085673 8.786088 1.002034 0.145653 23.636090 2.720002 -1.417328 10.716052 -3.453612 -1.201023 -15.855161 -6.039159 3.927427 1.674762 -2.690093 19.644466 -27.712017 -20.634561 6.632624 -72.083341 17.750598 20.756762 17.615073 -24.282992 -12.171236 -1.598950 -4.657190 -6.236241 -29.132063 3.401701 -70.048017 -66.177460 42.430906 -16.391323 -0.572525 19.399885 5.756638 -28.339442 -5.713918 -5.337310 63.797902 -6.456836 5.009728 12.279698 8.724776 -0.581270 0.644509 -0.270726 -11.037527 -34.385105 -3.539610 25.798864 55.658897 23.343301 -9.627030 38.992330 0.137603 0.131031 -15.398844 -5.241359
-18.589720 57.706404 73.767245 -177.868275 -42.708969 -2.265989 0.419798 29.198099 5.006149 -0.069545 5.648836 0.632639 -0.081201 8.829058 0.988988 0.142990 23.618056 2.725428 -1.538351 10.734511 -3.520207 -1.404719 -15.849537 -6.105213 3.924457 1.719408 -2.698206 19.679753 -27.744910 -20.657341 6.578045 -72.020970 17.798035 20.730541 17.561598 -24.297805 -12.172834 -1.577379 -4.665584 -6.271978 -29.197445 3.417457 -69.776741 -66.147361 42.180277 -16.399108 -0.579766 19.407075 5.770141 -28.323999 -5.713427 -5.347927 63.795719 -6.462780 5.009013 12.274669 8.741422 -0.584235 0.652433 -0.279094 -11.044567 -34.371483 -3.539842 25.775940 55.657271 23.328897 -9.618918 39.001535 0.123375 0.109987 -15.388427 -5.237330
-18.584655 57.702571 73.774438 -177.885300 -42.747540 -2.255920 0.419971 29.189953 5.013720 -0.070519 5.645856 0.632791 -0.082750 8.824738 0.989208 0.138802 23.613455 2.726192 -1.663441 10.738622 -3.585311 -1.617070 -15.845037 -6.175176 3.924786 1.751984 -2.703076 19.720684 -27.780412 -20.681512 6.526674 -71.962047 17.841356 20.708282 17.533185 -24.301226 -12.169657 -1.570239 -4.668464 -6.284624 -29.209435 3.412589 -69.637546 -66.125073 42.053623 -16.405906 -0.587777 19.410591 5.787597 -28.287977 -5.706005 -5.353422 63.789560 -6.466943 5.004611 12.271342 8.761436 -0.585059 0.662614 -0.294808 -11.054210 -34.342041 -3.540127 25.779927 55.654552 23.334909 -9.617464 39.026750 0.114365 0.110869 -15.402748 -5.250729
-18.579728 57.701498 73.778628 -177.902433 -42.815574 -2.246686 0.422100 29.210135 5.023892 -0.072253 5.641888 0.632789 -0.085483 8.819113 0.989231 0.135530 23.640733 2.716648 -1.794699 10.709548 -3.641792 -1.839634 -15.840874 -6.249808 3.929052 1.730032 -2.693598 19.761373 -27.794570 -20.706180 6.455257 -71.907891 17.911727 20.687627 17.529696 -24.301585 -12.162022 -1.594692 -4.657245 -6.301491 -29.218233 3.412857 -69.514646 -66.085571 41.932942 -16.389954 -0.602129 19.421526 5.804823 -28.218040 -5.692179 -5.364181 63.781016 -6.478615 5.003340 12.264218 8.784566 -0.587656 0.668458 -0.302788 -11.060662 -34.282139 -3.542933 25.790059 55.650004 23.345108 -9.644779 39.065737 0.088958 0.116658 -15.427596 -5.259171
-18.574140 57.695279 73.788304 -177.923238 -42.842859 -2.239002 0.431464 29.188643 5.041437 -0.072780 5.664111 0.625178 -0.088002 8.785501 0.997513 0.125268 23.668312 2.706133 -1.928008 10.679693 -3.703061 -2.076326 -15.836611 -6.328673 3.940312 1.712395 -2.691499 19.789308 -27.819510 -20.725592 6.357688 -71.841269 18.009903 20.672045 17.521658 -24.293204 -12.152759 -1.606791 -4.653919 -6.320627 -29.240947 3.423878 -69.395015 -66.048862 41.809701 -16.369708 -0.611602 19.432064 5.820695 -28.195337 -5.676802 -5.340010 63.772365 -6.461688 4.988472 12.265160 8.804322 -0.594176 0.672975 -0.306289 -11.072937 -34.263630 -3.530974 25.811787 55.649086 23.357435 -9.629951 39.067362 0.099797 0.099833 -15.415793 -5.269924
-18.569814 57.688909 73.798079 -177.934916 -42.872069 -2.231323 0.436224 29.180815 5.050553 -0.075136 5.674399 0.622222 -0.087965 8.781760 0.997151 0.121903 23.578959 2.732430 -2.079991 10.734044 -3.798954 -2.328961 -15.833142 -6.410141 3.944591 1.728551 -2.692790 19.804629 -27.792184 -20.738020 6.277534 -71.764173 18.097323 20.664440 17.515433 -24.285529 -12.155734 -1.511631 -4.706509 -6.346260 -29.293487 3.455738 -69.294610 -65.963487 41.699130 -16.308042 -0.649439 19.449389 5.831190 -28.170809 -5.671593 -5.320209 63.768029 -6.445549 4.980780 12.258816 8.815045 -0.596499 0.680009 -0.304750 -11.112263 -34.248692 -3.522130 25.865786 55.646957 23.384248 -9.583454 39.072355 0.136353 0.053880 -15.406560 -5.284938
